<svg xmlns="http://www.w3.org/2000/svg" width="16" height="13.75"><path data-name="google plus" d="M13.5 3.47v2.44h-1V3.47H10v-1h2.5V.03h1v2.44H16v1h-2.5zM6.585 1a2.549 2.549 0 0 1 1.407 2.33 2.722 2.722 0 0 1-1.238 2.1 1.356 1.356 0 0 0-.81 1.18 2.687 2.687 0 0 0 1.11 1.29 2.865 2.865 0 0 1 1.445 2.7c0 1.49-1.445 3.17-4.116 3.17C2.039 13.77 0 12.64 0 11.15c0-1.52 1.866-2.99 4.209-2.99.256 0 .49-.01.732-.01A1.622 1.622 0 0 1 4.366 7a1.775 1.775 0 0 1 .214-.79c-.127.01-.257-.01-.391-.01A3.06 3.06 0 0 1 .975 3.14C.975 1.51 2.756.01 4.648.01h4.22L7.923 1H6.585zM4.656 8.55c-1.62-.02-3.071.97-3.071 2.15 0 1.21 1.17 2.1 2.789 2.1 2.277 0 3.071-.82 3.071-2.03a1.8 1.8 0 0 0-.052-.43c-.178-.69-.808-1.03-1.688-1.63a3.5 3.5 0 0 0-1.049-.16zm1.819-5.2A2.811 2.811 0 0 0 4.12.79C3.033.76 2.304 1.83 2.492 3.23A2.826 2.826 0 0 0 4.8 5.83c1.086.03 1.863-1.08 1.675-2.48z" fill="#fff" fill-rule="evenodd"/></svg>